# xmcd CD database file
#
# Track frame offsets:
#	150
#	19637
#	45944
#	93445
#	117721
#	140475
#	160949
#	203646
#	229005
#	273181
#	287397
#	307735
#
# Disc length: 4274 seconds
#
# Revision: 0
# Processed by: cddbd v1.5.1PL0 Copyright (c) Steve Scherf et al.
# Submitted via: CDex 1.51
#
DISCID=9410b00c
DTITLE=Saggio - Courting the Heart of the World
DYEAR=2001
DGENRE=New Age
TTITLE0=Moonlight Pony
TTITLE1=Stargaze
TTITLE2=The Gathering of Eagles
TTITLE3=Purification
TTITLE4=In the Arms of Compassion
TTITLE5=Cry for a Vision
TTITLE6=Breath of God
TTITLE7=One World Lamentation
TTITLE8=Courting the Heart of the World
TTITLE9=Pleiadian Sreneade
TTITLE10=Amazing Grace
TTITLE11=Medicine Wheel
EXTD=YEAR: 2001
EXTT0=
EXTT1=
EXTT2=
EXTT3=
EXTT4=
EXTT5=
EXTT6=
EXTT7=
EXTT8=
EXTT9=
EXTT10=
EXTT11=
PLAYORDER=
